<?xml version="1.0" standalone="no"?>
<!DOCTYPE svg PUBLIC "-//W3C//DTD SVG 20010904//EN"
 "http://www.w3.org/TR/2001/REC-SVG-20010904/DTD/svg10.dtd">
<svg version="1.0" xmlns="http://www.w3.org/2000/svg"
 width="664.000000pt" height="1280.000000pt" viewBox="0 0 664.000000 1280.000000"
 preserveAspectRatio="xMidYMid meet">
<metadata>
Created by potrace 1.15, written by Peter Selinger 2001-2017
</metadata>
<g transform="translate(0.000000,1280.000000) scale(0.100000,-0.100000)"
fill="#607d8b" stroke="none">
<path d="M4327 12785 c-128 -26 -232 -92 -369 -233 -77 -78 -94 -102 -138
-198 -57 -121 -70 -138 -120 -164 -54 -26 -114 -38 -307 -60 -201 -24 -250
-40 -318 -110 -35 -36 -40 -47 -40 -88 0 -114 143 -303 255 -336 71 -21 281
-46 392 -46 84 0 87 -1 112 -31 34 -40 40 -67 33 -156 -4 -59 -11 -81 -31
-108 -14 -18 -26 -40 -26 -48 0 -21 38 -65 71 -82 24 -13 29 -22 29 -53 0 -28
11 -51 46 -97 24 -33 47 -71 50 -85 24 -118 68 -220 129 -302 47 -64 79 -79
135 -67 59 13 70 7 70 -41 0 -119 -52 -196 -158 -231 -64 -21 -105 -52 -143
-105 -7 -11 -39 -38 -69 -61 -74 -54 -117 -105 -151 -178 -48 -102 -69 -204
-69 -339 -1 -134 -3 -144 -98 -377 -93 -225 -95 -241 -98 -584 -2 -294 -3
-307 -48 -635 -63 -467 -69 -537 -63 -728 4 -129 13 -213 40 -372 41 -233 53
-346 63 -577 3 -89 12 -172 18 -184 6 -12 33 -30 60 -40 28 -10 56 -25 64 -33
19 -18 55 -235 142 -852 38 -274 86 -605 106 -734 47 -308 61 -424 72 -606 8
-148 9 -152 41 -196 44 -61 51 -98 55 -272 l3 -150 43 -36 42 -36 9 -121 c11
-161 29 -232 93 -372 105 -225 119 -280 191 -741 26 -162 64 -380 85 -485 22
-104 46 -233 55 -285 9 -52 23 -131 32 -174 38 -192 -28 -333 -214 -454 -88
-57 -139 -74 -368 -126 -88 -20 -171 -44 -185 -54 -64 -45 -101 -211 -67 -294
13 -30 22 -38 53 -44 47 -9 269 1 474 21 500 48 460 46 577 29 149 -22 362
-16 417 11 67 33 81 62 84 173 6 165 -30 340 -102 492 -40 86 -35 93 54 79 30
-5 66 -7 79 -4 23 6 24 8 18 78 -3 40 -39 225 -81 412 -151 688 -148 656 -106
1088 13 136 1 246 -47 416 -67 236 -72 260 -83 398 -6 76 -17 190 -26 253 -16
125 -12 167 25 274 28 80 28 153 -1 196 -13 19 -56 61 -97 94 -102 84 -111
104 -111 242 0 202 75 994 101 1061 6 15 21 41 33 58 47 62 48 69 16 110 -32
41 -32 42 18 130 55 98 57 104 26 136 l-27 28 101 173 c191 327 200 362 135
535 -35 93 -36 103 -33 198 2 55 4 156 4 225 0 124 0 126 -52 282 -29 87 -52
173 -52 191 0 63 31 129 86 184 76 76 86 72 63 -24 -10 -43 -19 -103 -19 -133
0 -51 66 -349 81 -360 3 -3 9 -48 13 -100 14 -201 91 -639 116 -664 17 -17 50
29 50 69 0 18 -14 105 -30 192 -34 175 -72 414 -68 419 2 1 25 -23 52 -56 84
-102 124 -136 144 -124 38 24 27 52 -60 142 -46 48 -100 116 -121 152 l-39 65
0 116 c0 109 24 316 43 367 5 12 15 22 22 22 19 0 43 29 50 60 4 14 27 49 52
78 48 57 54 83 34 141 -10 28 -8 39 11 78 22 43 22 47 6 80 -9 18 -16 55 -16
80 0 42 -4 50 -46 89 l-45 43 144 228 c272 430 350 548 426 651 72 96 77 101
90 82 20 -29 28 -25 55 28 l25 47 1 -35 c0 -40 13 -65 28 -56 5 3 15 27 22 53
10 42 13 46 22 28 38 -70 68 -62 68 17 l0 50 31 -27 c41 -34 73 -30 77 8 2 17
-4 37 -14 48 -17 18 -16 19 25 19 58 0 65 23 19 66 l-36 32 34 -5 c63 -10 81
39 38 105 -14 22 -21 24 -64 19 -46 -6 -49 -5 -60 24 -17 39 -37 49 -103 49
-70 0 -141 -22 -201 -62 -55 -36 -109 -104 -101 -128 4 -11 -4 -19 -27 -25
-41 -12 -60 -50 -62 -119 -1 -63 17 -70 67 -27 19 17 36 31 38 31 2 0 4 -33 4
-73 l-1 -74 -259 -397 c-143 -218 -261 -392 -263 -386 -2 5 13 107 33 227 38
225 82 395 205 778 34 105 67 212 75 239 7 26 16 51 20 54 10 10 74 -60 68
-74 -9 -24 17 -44 59 -44 40 0 40 1 35 30 -6 29 -5 30 28 30 42 0 52 14 24 34
-21 15 -21 15 11 23 43 11 49 29 16 44 l-26 12 35 24 c42 28 44 40 9 49 l-25
7 35 29 c42 35 46 55 11 64 l-25 6 21 17 c27 22 18 58 -17 67 l-25 6 30 19
c30 18 49 58 36 78 -11 19 -100 13 -119 -8 -9 -10 -29 -21 -44 -24 -19 -4 -40
-23 -67 -62 -22 -30 -51 -69 -64 -86 -18 -23 -27 -54 -38 -127 -24 -164 -77
-358 -156 -567 -114 -305 -151 -434 -221 -770 -20 -93 -38 -180 -41 -192 -4
-19 -12 -23 -41 -23 -29 0 -42 -7 -72 -42 -20 -23 -59 -65 -85 -93 l-49 -50 6
104 c4 57 26 291 51 520 59 549 67 682 56 911 -15 302 -60 472 -191 735 -71
141 -77 151 -120 172 -90 46 -93 67 -38 243 37 115 72 187 148 300 132 198
184 308 233 496 59 221 61 415 8 574 -70 208 -178 352 -336 446 -67 40 -97 64
-105 85 -21 50 -63 62 -123 33 -33 -16 -37 -15 -93 6 -75 29 -282 37 -387 15z"/>
<path d="M1611 12085 c-196 -59 -354 -147 -461 -254 -51 -51 -76 -87 -108
-156 -83 -178 -72 -166 -152 -154 -22 4 -25 0 -28 -28 -3 -32 -5 -33 -48 -33
-62 0 -90 -17 -176 -108 -89 -95 -140 -188 -168 -303 -31 -134 -67 -377 -90
-609 -46 -473 -68 -621 -165 -1105 -163 -812 -179 -911 -165 -1001 17 -101 60
-214 82 -214 8 0 9 57 5 213 -7 225 0 329 34 512 26 144 100 448 106 441 16
-16 -76 -852 -138 -1241 -30 -196 -45 -313 -39 -319 18 -18 11 -38 125 382 15
56 31 102 35 102 17 0 20 -240 4 -434 -22 -270 -16 -434 19 -507 39 -83 116
-154 140 -130 9 9 13 108 17 359 3 191 8 331 12 312 4 -19 17 -125 28 -235 22
-210 52 -425 70 -512 13 -60 33 -84 48 -56 37 70 166 750 177 931 9 146 17
163 39 76 10 -38 22 -72 28 -75 6 -4 -4 -48 -30 -120 -22 -63 -53 -175 -70
-249 -55 -248 -249 -1244 -259 -1333 -6 -49 -15 -93 -20 -98 -5 -5 -34 -13
-63 -18 -56 -9 -77 -26 -86 -71 -10 -47 -35 -109 -54 -133 -12 -15 -61 -41
-127 -67 -60 -24 -114 -49 -122 -56 -19 -18 -7 -56 30 -94 26 -25 37 -30 61
-25 33 8 78 -16 78 -40 0 -20 -2 -19 -67 11 -45 22 -59 24 -79 16 -52 -24 -36
-90 33 -133 28 -17 57 -23 153 -28 66 -4 122 -10 126 -14 4 -4 -7 -33 -25 -66
-17 -32 -34 -79 -37 -103 -14 -103 40 -224 110 -248 41 -13 55 -7 161 69 71
52 85 59 85 41 0 -17 -72 -192 -153 -375 -126 -285 -136 -318 -94 -334 24 -10
169 -28 476 -62 107 -11 204 -25 216 -29 16 -6 24 -20 29 -49 8 -54 36 -73 96
-66 25 3 51 2 58 -3 28 -19 109 -319 182 -682 69 -340 71 -415 19 -732 -51
-311 -146 -689 -234 -933 -106 -291 -218 -506 -343 -658 -46 -56 -97 -120
-112 -142 -65 -95 -199 -399 -220 -499 -11 -53 -10 -61 7 -85 20 -26 118 -72
182 -84 26 -5 44 -1 81 20 49 27 49 27 71 8 46 -41 139 -167 139 -188 0 -13 7
-32 15 -44 14 -20 25 -21 222 -26 119 -3 225 -10 248 -17 22 -6 103 -43 180
-81 88 -44 162 -74 200 -80 109 -20 340 13 435 61 64 33 65 71 8 206 -33 77
-35 79 -163 182 -71 57 -150 113 -175 125 -25 11 -48 25 -53 31 -8 12 -8 19
28 381 13 138 31 367 40 510 17 284 29 351 82 464 34 71 431 672 645 977 157
223 245 359 258 400 24 70 3 200 -111 724 -34 151 -74 308 -90 348 -16 41 -29
82 -29 93 0 34 34 55 141 83 136 36 194 62 225 99 21 25 24 36 19 71 -9 55
-66 198 -132 330 -68 136 -299 563 -343 634 -64 104 -70 143 -70 445 0 150 5
565 11 924 13 720 12 723 -47 876 -50 130 -58 198 -39 337 35 263 17 359 -152
820 -76 207 -112 290 -141 323 -10 11 -30 17 -58 17 l-44 0 -39 78 c-21 42
-48 86 -60 96 -28 25 -27 65 3 152 60 177 92 198 234 154 111 -35 233 -23 272
27 16 21 20 40 20 102 0 42 7 101 16 131 8 30 15 81 15 112 -1 50 3 61 34 98
29 35 35 50 35 90 0 42 6 55 43 100 23 29 50 62 61 75 27 34 15 63 -51 118
-72 61 -113 119 -113 163 0 18 14 67 31 109 48 120 39 200 -49 442 -35 94 -33
97 54 83 68 -11 90 -29 152 -125 25 -38 48 -63 50 -56 6 19 -165 269 -196 285
-26 14 -26 14 32 27 45 10 65 10 89 1 68 -26 38 13 -38 49 -54 25 -80 23 -150
-11 -33 -17 -67 -30 -76 -30 -21 0 -72 35 -163 113 -81 69 -230 156 -334 195
-56 21 -88 26 -197 29 -116 3 -139 0 -214 -22z m-677 -841 c31 -32 30 -18 10
-151 -10 -69 -15 -146 -12 -213 5 -123 26 -180 107 -289 65 -86 102 -121 197
-184 97 -65 128 -108 155 -217 41 -165 51 -133 -204 -643 -124 -249 -234 -477
-243 -507 -15 -47 -18 -99 -20 -345 -2 -343 -30 -661 -64 -724 -10 -19 -25
464 -25 814 0 274 2 298 27 430 39 200 88 718 91 956 2 130 1 137 -24 175 -55
83 -68 120 -83 240 -28 221 -38 412 -27 525 12 123 15 133 44 147 33 16 42 14
71 -14z m1217 -7321 c46 -109 121 -354 134 -442 l15 -95 -42 -65 c-23 -36 -61
-104 -85 -151 l-44 -85 6 55 c16 156 22 260 19 305 -31 392 -38 525 -29 525 3
0 15 -21 26 -47z"/>
</g>
</svg>
