<?xml version="1.0" standalone="no"?>
<!DOCTYPE svg PUBLIC "-//W3C//DTD SVG 20010904//EN"
 "http://www.w3.org/TR/2001/REC-SVG-20010904/DTD/svg10.dtd">
<svg version="1.0" xmlns="http://www.w3.org/2000/svg"
 width="1280.000000pt" height="959.000000pt" viewBox="0 0 1280.000000 959.000000"
 preserveAspectRatio="xMidYMid meet">
<metadata>
Created by potrace 1.15, written by Peter Selinger 2001-2017
</metadata>
<g transform="translate(0.000000,959.000000) scale(0.100000,-0.100000)"
fill="#607d8b" stroke="none">
<path d="M6360 8976 c-57 -29 -134 -123 -161 -195 -24 -66 -49 -190 -49 -249
0 -63 27 -221 49 -283 19 -55 68 -161 99 -213 16 -27 16 -29 -1 -40 -10 -6
-59 -40 -109 -76 -50 -36 -99 -70 -109 -76 -10 -6 -27 -18 -37 -27 -26 -24
-31 -22 -86 23 -26 22 -54 40 -61 40 -8 0 -24 13 -37 29 -31 38 -194 149 -293
199 -118 60 -229 98 -315 107 -84 10 -93 14 -78 32 26 32 118 83 195 109 99
33 223 34 316 3 79 -27 187 -97 254 -166 30 -30 57 -53 60 -50 9 10 -66 105
-120 151 -66 55 -115 85 -202 121 -92 39 -192 39 -311 1 -88 -28 -207 -100
-263 -160 -26 -27 -43 -36 -67 -36 -42 0 -174 -43 -241 -78 -150 -78 -293
-258 -330 -412 -7 -30 -13 -96 -13 -147 0 -309 164 -571 447 -711 112 -55 340
-111 363 -88 7 7 14 6 22 -2 17 -17 212 -15 328 3 241 39 602 185 862 348 58
37 109 67 112 67 3 0 49 -33 103 -73 160 -118 279 -186 423 -242 107 -41 272
-81 371 -90 l76 -7 10 -97 c5 -53 6 -114 2 -136 -4 -23 -8 -186 -7 -364 0
-293 -2 -324 -18 -342 -9 -10 -29 -19 -44 -19 -30 0 -56 -23 -45 -40 4 -6 75
-10 196 -10 178 0 189 1 189 19 0 14 -10 20 -42 25 -79 13 -78 8 -78 276 l0
236 28 26 c58 54 94 72 143 72 40 1 53 -4 76 -27 l28 -27 3 -251 c3 -287 2
-292 -70 -306 -60 -12 -57 -35 5 -46 26 -4 109 -6 185 -5 128 3 137 4 140 23
2 16 -7 23 -45 35 l-48 15 -6 250 c-8 309 -21 365 -92 419 -84 64 -210 37
-309 -66 -15 -15 -29 -28 -32 -28 -11 0 -6 369 4 375 6 4 24 8 40 10 144 19
284 96 395 218 67 74 67 74 138 87 74 12 97 21 202 69 127 60 225 168 260 286
56 194 -53 408 -265 519 -65 34 -199 79 -223 75 -6 -2 -48 1 -92 6 -69 7 -85
12 -117 39 -52 44 -168 100 -273 132 -193 57 -461 27 -707 -81 -108 -48 -288
-168 -419 -281 -89 -77 -116 -95 -128 -87 -21 13 -116 130 -137 170 l-18 31
81 76 c177 167 276 369 277 569 1 154 -51 270 -150 335 -42 28 -55 32 -118 32
-56 0 -81 -5 -116 -24z m178 -51 c67 -20 114 -62 143 -127 20 -45 23 -68 22
-148 -1 -52 -8 -121 -17 -154 -22 -83 -86 -211 -141 -281 -49 -64 -171 -175
-191 -175 -29 0 -84 104 -120 227 -35 118 -44 290 -20 383 32 124 104 227 188
269 51 25 68 26 136 6z m1278 -745 c87 -22 224 -83 224 -100 0 -5 -3 -10 -7
-10 -74 -4 -228 -23 -284 -36 -263 -59 -456 -158 -732 -374 -199 -155 -182
-146 -213 -125 -56 36 -176 153 -172 167 6 18 158 142 273 222 187 130 398
231 550 262 100 20 270 17 361 -6z m-2426 -46 c107 -37 179 -75 307 -163 62
-42 125 -83 140 -91 16 -8 29 -18 31 -22 2 -4 26 -24 53 -44 27 -19 49 -39 49
-43 0 -12 -218 -117 -295 -142 -92 -31 -176 -31 -233 -1 -118 62 -102 197 24
197 49 0 57 11 18 25 -83 32 -167 -25 -167 -113 0 -52 45 -116 103 -144 126
-62 303 -29 522 98 36 22 71 39 77 39 12 0 221 -198 221 -209 0 -10 -111 -98
-181 -144 -129 -85 -325 -153 -450 -156 -251 -5 -450 120 -564 354 -28 58 -65
215 -65 278 0 79 39 203 88 279 20 32 30 37 65 40 70 5 178 -11 257 -38z
m-370 16 c0 -6 -8 -27 -19 -48 -92 -182 -70 -437 53 -632 55 -87 163 -183 262
-233 256 -130 634 -68 928 151 38 29 72 52 75 52 3 0 35 -28 71 -61 36 -34 75
-68 88 -76 12 -9 22 -20 22 -27 0 -12 -149 -100 -320 -190 -152 -79 -331 -153
-440 -183 -52 -14 -122 -33 -155 -41 -45 -12 -109 -16 -260 -17 -180 0 -208 2
-280 23 -254 73 -415 225 -527 497 -34 82 -38 277 -8 366 60 177 220 326 435
405 72 26 75 27 75 14z m3245 -125 c188 -24 363 -138 439 -289 65 -128 49
-249 -49 -365 -35 -43 -126 -121 -140 -121 -4 0 -19 -9 -34 -19 -29 -21 -184
-81 -208 -81 -11 0 -10 6 2 31 9 17 28 65 43 107 25 70 27 90 27 227 0 136 -3
157 -26 225 -32 92 -68 157 -125 231 -45 59 -46 73 -4 65 14 -3 48 -8 75 -11z
m-129 -22 c18 -16 34 -32 34 -36 0 -5 11 -23 24 -40 34 -45 70 -129 95 -220
26 -94 28 -218 5 -320 -20 -89 -85 -231 -112 -246 -27 -14 -262 -14 -367 0
-249 33 -506 104 -675 186 -108 53 -204 109 -219 127 -8 9 15 35 86 97 53 46
108 92 122 101 14 10 40 28 57 40 284 208 595 328 872 337 33 1 51 -5 78 -26z
m-1755 -85 c12 -18 36 -49 54 -68 18 -19 44 -51 59 -71 l27 -37 -121 -98 -121
-97 -77 75 c-42 42 -89 86 -104 99 -16 12 -28 28 -28 34 0 7 56 49 125 95 69
45 128 87 131 91 11 18 33 8 55 -23z m250 -281 c19 -19 62 -58 97 -87 34 -29
62 -56 62 -60 0 -8 -169 -141 -219 -173 -32 -19 -21 -27 -148 95 -59 55 -74
78 -55 78 4 0 23 15 42 33 19 18 60 52 90 74 30 22 61 47 69 56 19 23 24 22
62 -16z m322 -254 c157 -102 363 -187 587 -242 115 -28 389 -61 507 -61 l96 0
-24 -26 c-76 -83 -254 -180 -352 -191 -47 -6 -49 -5 -47 18 1 13 2 30 1 37 -2
22 -61 13 -154 -25 l-90 -36 -91 18 c-99 20 -248 63 -311 90 -172 75 -453 249
-443 275 2 4 41 38 88 76 47 37 96 79 110 91 14 13 31 23 38 23 7 0 46 -21 85
-47z"/>
<path d="M3654 6887 c-2 -7 -3 -67 -2 -133 3 -109 5 -119 22 -119 14 0 23 14
37 55 32 99 83 125 239 118 l75 -3 0 -451 c0 -526 5 -497 -95 -509 -55 -6 -61
-9 -58 -29 3 -21 5 -21 238 -21 232 0 235 0 238 21 3 19 -3 22 -53 26 -67 6
-86 22 -94 80 -4 24 -5 234 -3 466 l4 424 107 -4 c149 -4 189 -30 216 -135 7
-28 18 -48 26 -48 11 0 14 26 14 135 l0 135 -453 3 c-367 2 -454 0 -458 -11z"/>
<path d="M7210 6743 c-7 -16 -20 -44 -29 -63 -17 -36 -103 -128 -160 -171 -46
-33 -34 -49 35 -49 l54 0 0 -274 c0 -150 3 -287 6 -304 4 -17 21 -48 39 -69
32 -37 34 -38 101 -38 56 0 75 4 101 23 29 21 93 106 93 124 0 23 -33 17 -65
-11 -44 -38 -77 -40 -104 -5 -20 25 -21 39 -21 290 l0 264 85 0 85 0 0 35 0
35 -47 0 c-69 0 -123 11 -122 24 1 6 1 57 0 114 -1 92 -3 102 -19 102 -10 0
-24 -12 -32 -27z"/>
<path d="M4975 6560 c-173 -35 -294 -174 -311 -355 -16 -174 65 -335 204 -406
40 -21 61 -24 147 -24 90 0 105 3 153 28 73 39 132 100 169 177 116 240 17
496 -221 569 -73 23 -80 23 -141 11z m128 -110 c58 -52 93 -126 107 -232 21
-153 -11 -311 -73 -350 -28 -19 -91 -29 -129 -21 -45 9 -113 86 -143 162 -42
104 -52 263 -23 346 18 51 61 107 93 121 16 7 51 13 76 14 40 0 52 -5 92 -40z"/>
<path d="M5737 6546 c-55 -16 -125 -67 -155 -112 -81 -123 -59 -264 54 -353
l27 -21 -57 -59 c-51 -54 -56 -64 -56 -104 0 -38 5 -49 31 -71 l31 -26 -52
-58 c-69 -77 -88 -116 -80 -166 12 -63 61 -93 226 -135 23 -6 59 -11 80 -12
l39 0 -25 -17 c-51 -35 -116 -102 -150 -156 -19 -30 -38 -55 -42 -56 -4 0 -9
55 -10 123 l-3 122 -35 2 c-42 3 -423 -147 -428 -169 -1 -7 3 -22 11 -32 11
-15 19 -16 67 -8 64 12 99 -1 118 -43 18 -40 17 -904 -2 -948 -22 -52 -49 -69
-118 -76 -62 -6 -63 -7 -66 -37 l-3 -31 98 -6 c144 -10 556 -8 571 2 8 5 12
21 10 37 -3 27 -6 29 -59 35 -89 10 -131 44 -153 124 -5 19 -9 407 -7 636 1
101 2 108 33 155 49 75 107 142 129 149 13 5 44 -8 95 -39 42 -24 93 -47 114
-51 48 -8 93 14 120 58 33 53 35 89 8 143 -20 39 -34 54 -76 74 -28 14 -51 27
-51 30 0 3 25 16 57 30 170 73 248 248 156 350 -56 62 -110 77 -304 83 -91 4
-175 9 -187 13 -29 8 -29 36 -1 74 22 30 23 30 122 30 56 0 118 5 138 10 53
15 119 68 147 119 31 57 40 160 18 214 l-16 37 53 0 c58 0 88 20 81 55 -2 11
-4 23 -4 28 -1 4 -44 7 -98 7 -83 0 -104 4 -151 26 -67 32 -174 40 -245 20z
m153 -66 c16 -11 41 -46 56 -77 24 -51 26 -65 22 -148 -4 -102 -23 -142 -78
-165 -71 -29 -145 14 -179 104 -22 61 -21 188 4 235 35 69 117 93 175 51z
m143 -721 c110 -15 132 -38 101 -104 -32 -68 -114 -105 -238 -106 -101 -2
-168 8 -223 33 -72 32 -83 87 -32 157 l30 42 147 -6 c81 -3 178 -10 215 -16z"/>
<path d="M6580 6547 c-179 -40 -278 -196 -268 -424 4 -102 18 -145 77 -235 82
-126 280 -165 405 -79 80 55 150 170 144 235 -5 46 -25 42 -52 -11 -40 -80
-104 -123 -183 -123 -130 0 -223 95 -254 258 -10 53 -10 65 2 72 7 5 120 6
250 3 233 -6 236 -6 241 15 8 29 -8 105 -31 149 -57 112 -195 170 -331 140z
m94 -81 c41 -17 86 -88 86 -134 l0 -32 -159 0 -159 0 8 34 c25 114 126 173
224 132z"/>
<path d="M8595 6541 c-99 -17 -178 -80 -228 -183 -69 -139 -72 -278 -9 -412
57 -121 157 -189 283 -193 136 -4 244 81 304 240 17 44 17 49 2 64 -13 13 -19
14 -31 3 -9 -7 -16 -18 -16 -25 0 -19 -78 -102 -112 -119 -61 -31 -160 -15
-221 35 -61 51 -98 129 -114 241 l-5 38 253 2 254 3 -1 46 c-4 99 -80 207
-177 248 -45 19 -116 23 -182 12z m96 -92 c42 -21 78 -80 79 -126 0 -23 -1
-23 -160 -23 l-160 0 20 51 c22 60 44 87 85 105 43 19 90 17 136 -7z"/>
<path d="M9105 6496 c-78 -33 -100 -46 -100 -61 0 -17 6 -20 41 -17 69 4 69 4
69 -294 0 -295 1 -291 -72 -303 -29 -5 -38 -11 -38 -26 0 -19 8 -20 184 -23
189 -3 225 4 200 34 -6 8 -20 14 -30 14 -38 0 -69 23 -80 59 -6 22 -9 114 -7
236 l3 200 35 47 c19 26 43 47 53 48 10 0 39 -11 65 -25 59 -32 77 -31 107 1
35 37 33 83 -4 123 -25 27 -36 31 -78 31 -39 0 -57 -7 -96 -36 -26 -19 -53
-46 -59 -59 -18 -39 -27 -29 -30 33 -3 56 -4 57 -33 59 -17 1 -75 -17 -130
-41z"/>
<path d="M2107 6043 c-6 -6 -10 -62 -4 -64 1 0 36 -3 77 -5 99 -7 151 -36 175
-97 15 -39 16 -115 13 -803 -3 -677 -5 -763 -20 -794 -32 -69 -91 -99 -195
-100 -63 0 -63 0 -63 -29 0 -22 6 -30 24 -35 13 -3 202 -6 420 -6 l397 1 -3
32 -3 32 -75 6 c-79 6 -121 22 -157 61 -37 39 -43 129 -36 486 l6 322 31 1
c287 6 382 2 427 -18 65 -29 98 -77 111 -160 15 -95 14 -95 45 -91 l28 3 0
330 0 330 -30 0 c-22 0 -30 -5 -33 -20 -19 -131 -74 -216 -148 -230 -41 -8
-425 -8 -433 0 -2 3 -4 148 -3 323 1 174 2 336 2 360 l0 44 298 -4 c232 -3
304 -7 327 -18 100 -48 148 -104 185 -215 26 -77 46 -98 66 -70 12 15 14 60
12 220 l-3 200 -155 6 c-215 9 -1275 11 -1283 2z"/>
<path d="M4223 5430 c-103 -37 -177 -84 -255 -162 -188 -188 -257 -481 -178
-743 65 -210 233 -385 424 -440 85 -25 298 -17 375 14 171 69 313 216 382 395
37 97 39 102 50 191 16 121 2 247 -40 350 -49 121 -100 195 -185 267 -81 69
-133 97 -230 127 -91 28 -266 29 -343 1z m252 -115 c170 -81 268 -323 266
-660 -1 -187 -31 -301 -98 -375 -56 -63 -109 -91 -184 -97 -142 -13 -268 89
-348 282 -18 43 -35 88 -37 100 -19 86 -24 129 -30 232 -12 222 31 388 124
476 71 68 211 87 307 42z"/>
<path d="M6698 5440 c-195 -33 -340 -143 -429 -325 -27 -55 -53 -122 -59 -150
-34 -163 -36 -317 -4 -439 31 -120 146 -313 201 -339 13 -6 23 -14 23 -18 0
-10 87 -63 130 -78 208 -76 380 -42 538 104 87 81 136 160 174 278 26 85 27
92 11 109 -27 30 -40 21 -80 -54 -54 -104 -131 -179 -212 -206 -219 -74 -455
58 -539 303 -24 71 -39 139 -48 217 l-6 58 448 2 449 3 -1 65 c-1 125 -70 270
-168 357 -107 94 -275 138 -428 113z m122 -139 c25 -11 55 -29 67 -38 35 -29
82 -116 88 -163 3 -25 8 -57 10 -72 l5 -28 -290 0 c-289 0 -290 0 -290 21 0
35 22 101 48 144 48 78 110 129 192 156 38 13 120 3 170 -20z"/>
<path d="M9390 5419 c-25 -5 -81 -27 -125 -49 -190 -93 -307 -286 -336 -554
-44 -416 188 -750 536 -773 154 -10 268 37 390 161 88 89 140 180 170 296 16
61 16 65 -1 77 -32 23 -42 14 -86 -69 -50 -97 -102 -151 -178 -187 -48 -23
-67 -26 -156 -25 -95 0 -107 3 -170 34 -162 79 -275 272 -286 485 l-3 70 448
3 447 2 0 38 c0 63 -28 174 -60 239 -18 35 -56 88 -90 122 -98 100 -207 142
-365 140 -49 -1 -110 -5 -135 -10z m178 -133 c50 -26 101 -75 126 -125 12 -23
36 -130 36 -163 0 -5 -130 -8 -290 -8 l-290 0 0 30 c0 41 49 147 89 192 90
102 217 131 329 74z"/>
<path d="M10330 5352 l-195 -79 0 -34 c0 -28 3 -33 20 -31 91 14 126 14 144
-2 40 -36 42 -72 39 -526 -3 -398 -5 -438 -21 -468 -22 -39 -69 -62 -133 -64
-38 0 -45 -4 -50 -25 -4 -13 -3 -28 2 -32 5 -5 154 -11 330 -14 340 -6 361 -4
353 39 -3 14 -16 21 -54 27 -112 18 -159 66 -170 172 -4 35 -6 207 -3 382 l3
318 37 60 c42 69 98 130 127 140 13 4 44 -9 93 -40 88 -54 131 -64 181 -40 52
24 71 59 71 125 -1 67 -21 101 -79 135 -53 31 -140 34 -202 6 -53 -25 -124
-89 -180 -165 l-43 -58 0 114 c0 123 -6 138 -49 138 -15 0 -114 -36 -221 -78z"/>
<path d="M7400 5395 c-7 -8 -10 -26 -6 -39 4 -18 15 -25 43 -31 21 -3 57 -17
80 -31 34 -20 48 -38 83 -111 23 -49 49 -106 56 -128 8 -22 18 -49 24 -60 5
-11 18 -40 28 -65 11 -25 34 -77 51 -117 17 -39 31 -74 31 -77 0 -3 26 -68 59
-143 32 -76 88 -210 125 -298 37 -88 74 -174 82 -192 8 -17 14 -36 14 -43 0
-7 15 -10 41 -8 l41 3 78 185 c42 102 109 262 148 355 39 94 94 224 122 290
28 66 72 171 98 233 58 142 94 186 162 202 45 11 50 15 50 40 0 26 -3 28 -52
34 -29 3 -126 5 -216 4 -149 -2 -164 -3 -173 -21 -17 -30 -4 -44 50 -50 131
-16 129 -30 -75 -512 -18 -44 -60 -144 -92 -223 -33 -79 -63 -143 -68 -144 -5
0 -17 22 -27 48 -10 27 -26 67 -36 89 -10 22 -31 72 -46 110 -15 39 -39 95
-52 125 -14 30 -31 71 -38 90 -7 19 -34 85 -59 145 -85 201 -75 260 43 275 54
6 73 30 48 58 -16 18 -36 19 -311 20 -248 1 -296 -1 -306 -13z"/>
<path d="M3102 3975 c-107 -26 -193 -76 -382 -224 -302 -237 -536 -386 -753
-478 -241 -103 -396 -134 -717 -146 -113 -5 -360 19 -406 38 -18 7 -35 11 -38
8 -3 -3 -13 -2 -23 2 -10 5 -26 10 -36 12 -44 8 -167 76 -222 123 -32 27 -63
50 -67 50 -17 0 -6 -18 40 -62 150 -147 517 -227 911 -198 288 22 622 127 854
269 71 43 97 50 116 27 15 -18 163 -89 226 -109 87 -27 132 -34 212 -33 114 2
174 19 312 87 117 58 161 89 443 303 47 36 92 66 100 66 7 0 72 -48 143 -106
167 -135 285 -214 410 -274 124 -60 208 -79 323 -75 113 4 183 24 313 89 l107
54 59 -37 c53 -34 60 -42 71 -89 27 -105 111 -214 231 -300 218 -157 589 -199
821 -94 67 30 168 100 183 127 18 32 44 17 192 -117 l48 -44 -36 -60 c-33 -54
-37 -66 -37 -130 0 -86 29 -154 73 -169 37 -12 56 0 85 55 17 34 22 61 22 115
0 68 -5 85 -46 155 l-18 30 89 85 c50 47 98 87 107 90 12 4 32 -8 60 -35 55
-54 95 -79 188 -117 208 -86 523 -61 739 59 138 77 256 216 291 346 9 35 20
49 58 73 66 42 86 45 122 19 49 -35 211 -107 268 -119 73 -15 234 -13 307 4
67 16 227 92 321 153 34 22 112 80 174 128 168 132 198 154 215 154 8 0 32
-16 54 -35 21 -19 41 -35 44 -35 3 0 18 -11 33 -24 221 -187 445 -317 594
-347 37 -7 104 -10 173 -7 122 6 153 15 311 94 l88 44 27 -19 c44 -32 292
-158 361 -184 74 -28 189 -64 270 -83 171 -43 519 -56 724 -29 103 14 234 46
266 66 8 5 22 12 30 15 82 31 200 117 208 151 6 25 -19 13 -66 -30 -95 -89
-229 -146 -377 -162 -33 -3 -78 -11 -100 -17 -65 -17 -421 -12 -476 6 -25 9
-72 18 -105 20 -32 3 -84 12 -114 21 -30 9 -71 20 -90 24 -104 25 -351 144
-480 231 -41 28 -93 62 -114 77 -66 43 -187 134 -264 198 -158 131 -310 233
-392 264 -84 32 -245 35 -328 7 -61 -21 -233 -109 -268 -137 -6 -5 -18 -3 -30
5 -43 31 -188 106 -250 131 -130 52 -288 44 -416 -21 -60 -30 -211 -132 -216
-145 -2 -5 -8 -9 -12 -9 -5 0 -59 -39 -120 -87 -138 -109 -391 -283 -402 -277
-4 3 -8 17 -8 31 0 14 -7 50 -16 80 -45 155 -222 224 -375 147 -76 -38 -189
-177 -165 -202 8 -7 36 18 36 32 0 21 104 124 148 146 65 32 129 37 184 12 39
-17 50 -28 73 -78 34 -71 41 -133 23 -194 -12 -40 -20 -49 -73 -77 -33 -18
-87 -41 -120 -52 -33 -11 -73 -26 -88 -34 -33 -17 -199 -60 -307 -79 -47 -8
-159 -13 -300 -13 -257 0 -234 -11 -206 100 18 71 12 127 -19 163 -48 56 -127
17 -142 -71 -6 -43 -43 -76 -121 -111 -41 -19 -43 -19 -84 0 -91 41 -122 68
-135 115 -6 25 -23 57 -37 72 -34 37 -70 35 -107 -5 -23 -26 -29 -41 -29 -78
0 -51 24 -148 39 -163 6 -6 11 -15 11 -20 0 -5 -102 -7 -242 -4 -193 3 -264 9
-343 25 -224 46 -526 168 -546 219 -5 14 -9 54 -9 91 0 108 54 200 128 219 14
3 56 1 94 -5 52 -8 77 -18 109 -43 38 -30 98 -99 125 -145 16 -26 27 -12 19
24 -8 40 -89 125 -148 157 -56 30 -165 47 -217 33 -44 -12 -99 -45 -123 -72
-33 -38 -67 -120 -67 -163 0 -29 -4 -43 -13 -43 -26 0 -179 109 -437 311 -158
124 -273 203 -324 224 -20 9 -72 22 -116 31 -71 13 -89 13 -167 -1 -88 -15
-202 -62 -306 -126 l-49 -30 -46 29 c-216 135 -365 175 -520 137z m164 -46
c80 -15 325 -140 324 -166 0 -5 -33 -32 -73 -60 -39 -29 -103 -78 -142 -109
-38 -30 -117 -86 -175 -124 -58 -37 -112 -75 -122 -83 -9 -9 -18 -13 -21 -11
-2 2 -35 -10 -73 -27 -63 -29 -78 -32 -179 -33 -95 -1 -122 3 -200 27 -114 36
-225 80 -225 89 0 4 33 28 73 54 64 41 324 229 337 243 14 16 192 132 238 155
41 21 128 49 173 55 3 1 32 -4 65 -10z m1004 -46 c47 -22 228 -147 367 -253
61 -47 150 -112 197 -144 47 -33 86 -63 86 -67 0 -8 -10 -12 -90 -41 -183 -65
-341 -81 -445 -44 -105 37 -259 130 -395 236 -48 39 -93 70 -99 70 -6 0 -11 4
-11 9 0 5 -32 33 -72 61 l-71 53 24 18 c53 40 227 121 288 133 70 13 146 3
221 -31z m5010 -28 c96 -48 190 -107 189 -120 0 -5 -32 -32 -70 -60 -39 -27
-107 -80 -152 -116 -88 -70 -260 -189 -275 -189 -5 0 -30 -11 -54 -25 -153
-86 -305 -81 -562 17 -47 18 -86 38 -86 43 0 6 24 25 53 43 52 33 114 77 284
201 181 133 260 185 318 212 78 35 94 38 195 35 75 -3 94 -8 160 -41z m825 17
c91 -33 183 -93 452 -297 66 -50 149 -110 186 -135 67 -46 80 -60 51 -60 -9 0
-28 -6 -42 -14 -15 -7 -52 -21 -82 -30 -201 -58 -201 -59 -278 -54 -129 7
-304 95 -505 252 -56 44 -137 106 -181 139 -86 65 -86 65 -11 108 22 12 60 34
85 48 107 61 229 77 325 43z m-3731 -601 c24 -25 26 -34 21 -67 -9 -55 -25
-94 -39 -94 -12 0 -31 37 -41 81 -7 28 11 109 24 109 4 0 20 -13 35 -29z m492
-2 c10 -20 14 -43 10 -63 -3 -17 -8 -42 -11 -55 -12 -64 -59 -36 -69 41 -6 46
-5 53 20 79 15 16 29 29 31 29 1 0 10 -14 19 -31z m-1603 -34 c125 -57 261
-99 442 -136 134 -28 170 -31 340 -33 105 0 208 2 230 6 64 12 74 -3 36 -50
-115 -146 -412 -174 -695 -67 -141 53 -292 152 -357 232 -52 66 -52 74 4 48z
m2690 -26 c-21 -36 -118 -124 -180 -162 -57 -36 -187 -102 -195 -99 -4 1 -23
-5 -43 -14 -57 -24 -214 -54 -280 -53 -79 0 -199 22 -257 48 -63 27 -140 98
-136 125 2 17 9 21 38 18 19 -1 118 -3 220 -3 212 -2 379 20 553 71 111 32
226 73 254 89 36 21 45 13 26 -20z m-1499 2 c3 -5 27 -19 53 -31 34 -16 43
-24 32 -30 -18 -10 -121 -32 -126 -26 -2 2 1 24 8 50 11 44 22 56 33 37z m314
-42 l10 -41 -41 5 c-67 9 -82 13 -80 22 2 10 75 54 89 55 6 0 16 -19 22 -41z
m-60 -59 c84 -22 92 -26 92 -45 0 -19 -49 -75 -65 -75 -8 0 -18 -6 -22 -12 -4
-7 -34 -35 -66 -61 l-57 -49 -98 88 c-108 98 -118 109 -100 121 24 15 203 61
223 57 11 -3 53 -13 93 -24z m-82 -354 c32 -58 20 -154 -21 -169 -73 -29 -89
127 -22 211 11 14 15 11 43 -42z"/>
<path d="M6365 3856 c-85 -38 -122 -171 -75 -274 39 -87 240 -262 300 -262 72
0 252 161 306 275 46 97 20 205 -62 253 -32 19 -51 22 -101 19 -68 -3 -105
-27 -125 -77 -9 -24 -10 -24 -20 -5 -15 27 -48 59 -75 74 -29 15 -111 13 -148
-3z"/>
</g>
</svg>
